<?xml version="1.0" encoding="UTF-8" standalone="yes"?>
<!-- Generated by SVG Image Exporter plugin of NB Mind Map Swing panel -->
<svg version="1.1" baseProfile="tiny" id="svg-root" width="100%" height="100%" viewBox="0 0 1236 506" xmlns="http://www.w3.org/2000/svg" xmlns:xlink="http://www.w3.org/1999/xlink">
<style>
.mindMapTitleFont {
font-family: serif;
font-size: 18px;
font-style: normal;
font-weight: bold;
}
</style>
<path d="M323.5,253.0 C323.5,201 323.5,201 469,201" fill="none" stroke="rgb(255,255,255)" stroke-width="1.5" stroke-linecap="round" />
<path d="M323.5,253.0 C323.5,450 323.5,450 755,450" fill="none" stroke="rgb(255,255,255)" stroke-width="1.5" stroke-linecap="round" />
<path d="M244.5,253.0 C244.5,134.5 244.5,134.5 95,134.5" fill="none" stroke="rgb(255,255,255)" stroke-width="1.5" stroke-linecap="round" />
<path d="M244.5,253.0 C244.5,213.5 244.5,213.5 91.5,213.5" fill="none" stroke="rgb(255,255,255)" stroke-width="1.5" stroke-linecap="round" />
<path d="M244.5,253.0 C244.5,292.5 244.5,292.5 88.5,292.5" fill="none" stroke="rgb(255,255,255)" stroke-width="1.5" stroke-linecap="round" />
<path d="M244.5,253.0 C244.5,371.5 244.5,371.5 106,371.5" fill="none" stroke="rgb(255,255,255)" stroke-width="1.5" stroke-linecap="round" />
<rect x="210" y="234.742" width="158" height="46.516" rx="5" ry="5"  fill="rgb(0,0,0)" fill-opacity="0.19" />
<rect x="205" y="229.742" width="158" height="46.516" rx="5" ry="5"  stroke="rgb(0,0,0)" stroke-width="1" stroke-linecap="round" fill="rgb(3,26,49)"/>
<text x="215" y="259.742" fill="rgb(255,255,255)" class="mindMapTitleFont">mermaid/docs</text>
<path d="M 536.6 201 L 547.8 201 L 547.8 43.5 L 622.5 43.5"  stroke="rgb(255,255,255)" stroke-width="1.5" stroke-linecap="round" fill="none"/>
<path d="M 536.6 201 L 547.8 201 L 547.8 106.5 L 615.5 106.5"  stroke="rgb(255,255,255)" stroke-width="1.5" stroke-linecap="round" fill="none"/>
<path d="M 536.6 201 L 547.8 201 L 547.8 232.5 L 642 232.5"  stroke="rgb(255,255,255)" stroke-width="1.5" stroke-linecap="round" fill="none"/>
<path d="M 536.6 201 L 547.8 201 L 547.8 358.5 L 615.5 358.5"  stroke="rgb(255,255,255)" stroke-width="1.5" stroke-linecap="round" fill="none"/>
<rect x="416" y="182.742" width="116" height="46.516"  fill="rgb(0,0,0)" fill-opacity="0.19" />
<rect x="411" y="177.742" width="116" height="46.516"  stroke="rgb(0,0,0)" stroke-width="1" stroke-linecap="round" fill="rgb(177,191,204)"/>
<text x="421" y="207.742" fill="rgb(0,0,0)" class="mindMapTitleFont">./section3</text>
<ellipse cx="537" cy="200.742" rx="8" ry="8"  stroke="rgb(64,64,64)" stroke-width="1" stroke-linecap="round" fill="rgb(255,255,255)"/>
<line x1="534" y1="200.742" x2="540" y2="200.742"  stroke="rgb(64,64,64)" stroke-width="1" stroke-linecap="round"/>
<rect x="564" y="25.242" width="127" height="46.516"  fill="rgb(0,0,0)" fill-opacity="0.19" />
<rect x="559" y="20.242" width="127" height="46.516"  stroke="rgb(0,0,0)" stroke-width="1" stroke-linecap="round" fill="rgb(253,253,253)"/>
<text x="569" y="50.242" fill="rgb(0,0,0)" class="mindMapTitleFont">springJDBC</text>
<rect x="564" y="88.242" width="113" height="46.516"  fill="rgb(0,0,0)" fill-opacity="0.19" />
<rect x="559" y="83.242" width="113" height="46.516"  stroke="rgb(0,0,0)" stroke-width="1" stroke-linecap="round" fill="rgb(253,253,253)"/>
<text x="569" y="113.242" fill="rgb(0,0,0)" class="mindMapTitleFont">springJPA</text>
<path d="M 734.6 232.5 L 745.8 232.5 L 745.8 169.5 L 932.5 169.5"  stroke="rgb(255,255,255)" stroke-width="1.5" stroke-linecap="round" fill="none"/>
<path d="M 734.6 232.5 L 745.8 232.5 L 745.8 264 L 840 264"  stroke="rgb(255,255,255)" stroke-width="1.5" stroke-linecap="round" fill="none"/>
<rect x="564" y="214.242" width="166" height="46.516"  fill="rgb(0,0,0)" fill-opacity="0.19" />
<rect x="559" y="209.242" width="166" height="46.516"  stroke="rgb(0,0,0)" stroke-width="1" stroke-linecap="round" fill="rgb(253,253,253)"/>
<text x="569" y="239.242" fill="rgb(0,0,0)" class="mindMapTitleFont">./springTesting</text>
<ellipse cx="735" cy="232.242" rx="8" ry="8"  stroke="rgb(64,64,64)" stroke-width="1" stroke-linecap="round" fill="rgb(255,255,255)"/>
<line x1="732" y1="232.242" x2="738" y2="232.242"  stroke="rgb(64,64,64)" stroke-width="1" stroke-linecap="round"/>
<rect x="762" y="151.242" width="351" height="46.516"  fill="rgb(0,0,0)" fill-opacity="0.19" />
<rect x="757" y="146.242" width="351" height="46.516"  stroke="rgb(0,0,0)" stroke-width="1" stroke-linecap="round" fill="rgb(253,253,253)"/>
<text x="767" y="176.242" fill="rgb(0,0,0)" class="mindMapTitleFont">./springTesting/&lt;intelliJ projects..&gt;</text>
<path d="M 932.6 264 L 943.8 264 L 943.8 232.5 L 1023 232.5"  stroke="rgb(255,255,255)" stroke-width="1.5" stroke-linecap="round" fill="none"/>
<path d="M 932.6 264 L 943.8 264 L 943.8 295.5 L 1085.5 295.5"  stroke="rgb(255,255,255)" stroke-width="1.5" stroke-linecap="round" fill="none"/>
<rect x="762" y="245.742" width="166" height="46.516"  fill="rgb(0,0,0)" fill-opacity="0.19" />
<rect x="757" y="240.742" width="166" height="46.516"  stroke="rgb(0,0,0)" stroke-width="1" stroke-linecap="round" fill="rgb(253,253,253)"/>
<text x="767" y="270.742" fill="rgb(0,0,0)" class="mindMapTitleFont">./springTesting</text>
<ellipse cx="933" cy="263.742" rx="8" ry="8"  stroke="rgb(64,64,64)" stroke-width="1" stroke-linecap="round" fill="rgb(255,255,255)"/>
<line x1="930" y1="263.742" x2="936" y2="263.742"  stroke="rgb(64,64,64)" stroke-width="1" stroke-linecap="round"/>
<rect x="960" y="214.242" width="136" height="46.516"  fill="rgb(0,0,0)" fill-opacity="0.19" />
<rect x="955" y="209.242" width="136" height="46.516"  stroke="rgb(0,0,0)" stroke-width="1" stroke-linecap="round" fill="rgb(253,253,253)"/>
<text x="965" y="239.242" fill="rgb(0,0,0)" class="mindMapTitleFont">README.md</text>
<rect x="960" y="277.242" width="261" height="46.516"  fill="rgb(0,0,0)" fill-opacity="0.19" />
<rect x="955" y="272.242" width="261" height="46.516"  stroke="rgb(0,0,0)" stroke-width="1" stroke-linecap="round" fill="rgb(253,253,253)"/>
<text x="965" y="302.242" fill="rgb(0,0,0)" class="mindMapTitleFont">&lt;images and resources..&gt;</text>
<rect x="564" y="340.242" width="113" height="46.516"  fill="rgb(0,0,0)" fill-opacity="0.19" />
<rect x="559" y="335.242" width="113" height="46.516"  stroke="rgb(0,0,0)" stroke-width="1" stroke-linecap="round" fill="rgb(253,253,253)"/>
<text x="569" y="365.242" fill="rgb(0,0,0)" class="mindMapTitleFont">springJPA</text>
<rect x="416" y="419.484" width="688" height="71.032"  fill="rgb(0,0,0)" fill-opacity="0.19" />
<rect x="411" y="414.484" width="688" height="71.032"  stroke="rgb(0,0,0)" stroke-width="1" stroke-linecap="round" fill="rgb(177,191,204)"/>
<text x="421" y="444.484" fill="rgb(0,0,0)" class="mindMapTitleFont">다행히 docsify mermaid 블로그는 이미지 링크 등의 상대적 경로를 지원하는 듯하다.</text>
<text x="431" y="469.484" fill="rgb(0,0,0)" class="mindMapTitleFont">시간날 때마다 확인해야겠지만 일단은 인텔리제이 드래그 방식으로 링크가 가능한 듯.</text>
<rect x="38" y="116.242" width="124" height="46.516"  fill="rgb(0,0,0)" fill-opacity="0.19" />
<rect x="33" y="111.242" width="124" height="46.516"  stroke="rgb(0,0,0)" stroke-width="1" stroke-linecap="round" fill="rgb(177,191,204)"/>
<text x="43" y="141.242" fill="rgb(0,0,0)" class="mindMapTitleFont">index.html</text>
<rect x="31" y="195.242" width="131" height="46.516"  fill="rgb(0,0,0)" fill-opacity="0.19" />
<rect x="26" y="190.242" width="131" height="46.516"  stroke="rgb(0,0,0)" stroke-width="1" stroke-linecap="round" fill="rgb(177,191,204)"/>
<text x="36" y="220.242" fill="rgb(0,0,0)" class="mindMapTitleFont">_navbar.md</text>
<rect x="25" y="274.242" width="137" height="46.516"  fill="rgb(0,0,0)" fill-opacity="0.19" />
<rect x="20" y="269.242" width="137" height="46.516"  stroke="rgb(0,0,0)" stroke-width="1" stroke-linecap="round" fill="rgb(177,191,204)"/>
<text x="30" y="299.242" fill="rgb(0,0,0)" class="mindMapTitleFont">_sidebar.md</text>
<rect x="60" y="353.242" width="102" height="46.516"  fill="rgb(0,0,0)" fill-opacity="0.19" />
<rect x="55" y="348.242" width="102" height="46.516"  stroke="rgb(0,0,0)" stroke-width="1" stroke-linecap="round" fill="rgb(177,191,204)"/>
<text x="65" y="378.242" fill="rgb(0,0,0)" class="mindMapTitleFont">.nojekyll</text>
</svg>