<?xml version="1.0" encoding="UTF-8" standalone="yes"?>
<!-- Generated by SVG Image Exporter plugin of NB Mind Map Swing panel -->
<svg version="1.1" baseProfile="tiny" id="svg-root" width="100%" height="100%" viewBox="0 0 1283 434" xmlns="http://www.w3.org/2000/svg" xmlns:xlink="http://www.w3.org/1999/xlink">
<style>
.mindMapTitleFont {
font-family: serif;
font-size: 18px;
font-style: normal;
font-weight: bold;
}
</style>
<path d="M715.75,217.0 C715.75,75 715.75,75 878.5,75" fill="none" stroke="rgb(255,255,255)" stroke-width="1.5" stroke-linecap="round" />
<path d="M715.75,217.0 C715.75,217 715.75,217 855,217" fill="none" stroke="rgb(255,255,255)" stroke-width="1.5" stroke-linecap="round" />
<path d="M715.75,217.0 C715.75,359 715.75,359 858,359" fill="none" stroke="rgb(255,255,255)" stroke-width="1.5" stroke-linecap="round" />
<path d="M639.25,217.0 C639.25,98.5 639.25,98.5 447.5,98.5" fill="none" stroke="rgb(255,255,255)" stroke-width="1.5" stroke-linecap="round" />
<path d="M639.25,217.0 C639.25,177.5 639.25,177.5 445.5,177.5" fill="none" stroke="rgb(255,255,255)" stroke-width="1.5" stroke-linecap="round" />
<path d="M639.25,217.0 C639.25,256.5 639.25,256.5 286.5,256.5" fill="none" stroke="rgb(255,255,255)" stroke-width="1.5" stroke-linecap="round" />
<path d="M639.25,217.0 C639.25,335.5 639.25,335.5 485,335.5" fill="none" stroke="rgb(255,255,255)" stroke-width="1.5" stroke-linecap="round" />
<rect x="606" y="198.742" width="153" height="46.516" rx="5" ry="5"  fill="rgb(0,0,0)" fill-opacity="0.19" />
<rect x="601" y="193.742" width="153" height="46.516" rx="5" ry="5"  stroke="rgb(0,0,0)" stroke-width="1" stroke-linecap="round" fill="rgb(3,26,49)"/>
<text x="611" y="223.742" fill="rgb(255,255,255)" class="mindMapTitleFont">SpringTesting</text>
<path d="M 964.6 75 L 975.8 75 L 975.8 43.5 L 1125 43.5"  stroke="rgb(255,255,255)" stroke-width="1.5" stroke-linecap="round" fill="none"/>
<path d="M 964.6 75 L 975.8 75 L 975.8 106.5 L 1048 106.5"  stroke="rgb(255,255,255)" stroke-width="1.5" stroke-linecap="round" fill="none"/>
<rect x="807" y="56.742" width="153" height="46.516"  fill="rgb(0,0,0)" fill-opacity="0.19" />
<rect x="802" y="51.742" width="153" height="46.516"  stroke="rgb(0,0,0)" stroke-width="1" stroke-linecap="round" fill="rgb(177,191,204)"/>
<text x="812" y="81.742" fill="rgb(0,0,0)" class="mindMapTitleFont">JUnit단위테스트</text>
<ellipse cx="965" cy="74.742" rx="8" ry="8"  stroke="rgb(64,64,64)" stroke-width="1" stroke-linecap="round" fill="rgb(255,255,255)"/>
<line x1="962" y1="74.742" x2="968" y2="74.742"  stroke="rgb(64,64,64)" stroke-width="1" stroke-linecap="round"/>
<rect x="992" y="25.242" width="276" height="46.516"  fill="rgb(0,0,0)" fill-opacity="0.19" />
<rect x="987" y="20.242" width="276" height="46.516"  stroke="rgb(0,0,0)" stroke-width="1" stroke-linecap="round" fill="rgb(253,253,253)"/>
<text x="997" y="50.242" fill="rgb(0,0,0)" class="mindMapTitleFont">be-homework-testing-junit</text>
<rect x="992" y="88.242" width="122" height="46.516"  fill="rgb(0,0,0)" fill-opacity="0.19" />
<rect x="987" y="83.242" width="122" height="46.516"  stroke="rgb(0,0,0)" stroke-width="1" stroke-linecap="round" fill="rgb(253,253,253)"/>
<text x="997" y="113.242" fill="rgb(0,0,0)" class="mindMapTitleFont">2022.09.21</text>
<path d="M 917.6 217 L 928.8 217 L 928.8 185.5 L 1077.5 185.5"  stroke="rgb(255,255,255)" stroke-width="1.5" stroke-linecap="round" fill="none"/>
<path d="M 917.6 217 L 928.8 217 L 928.8 248.5 L 1001 248.5"  stroke="rgb(255,255,255)" stroke-width="1.5" stroke-linecap="round" fill="none"/>
<rect x="807" y="198.742" width="106" height="46.516"  fill="rgb(0,0,0)" fill-opacity="0.19" />
<rect x="802" y="193.742" width="106" height="46.516"  stroke="rgb(0,0,0)" stroke-width="1" stroke-linecap="round" fill="rgb(177,191,204)"/>
<text x="812" y="223.742" fill="rgb(0,0,0)" class="mindMapTitleFont">SliceTest</text>
<ellipse cx="918" cy="216.742" rx="8" ry="8"  stroke="rgb(64,64,64)" stroke-width="1" stroke-linecap="round" fill="rgb(255,255,255)"/>
<line x1="915" y1="216.742" x2="921" y2="216.742"  stroke="rgb(64,64,64)" stroke-width="1" stroke-linecap="round"/>
<rect x="945" y="167.242" width="275" height="46.516"  fill="rgb(0,0,0)" fill-opacity="0.19" />
<rect x="940" y="162.242" width="275" height="46.516"  stroke="rgb(0,0,0)" stroke-width="1" stroke-linecap="round" fill="rgb(253,253,253)"/>
<text x="950" y="192.242" fill="rgb(0,0,0)" class="mindMapTitleFont">be-homework-testing-slice</text>
<rect x="945" y="230.242" width="122" height="46.516"  fill="rgb(0,0,0)" fill-opacity="0.19" />
<rect x="940" y="225.242" width="122" height="46.516"  stroke="rgb(0,0,0)" stroke-width="1" stroke-linecap="round" fill="rgb(253,253,253)"/>
<text x="950" y="255.242" fill="rgb(0,0,0)" class="mindMapTitleFont">2022.09.22</text>
<path d="M 923.6 359 L 934.8 359 L 934.8 327.5 L 1087.5 327.5"  stroke="rgb(255,255,255)" stroke-width="1.5" stroke-linecap="round" fill="none"/>
<path d="M 923.6 359 L 934.8 359 L 934.8 390.5 L 1007 390.5"  stroke="rgb(255,255,255)" stroke-width="1.5" stroke-linecap="round" fill="none"/>
<rect x="807" y="340.742" width="112" height="46.516"  fill="rgb(0,0,0)" fill-opacity="0.19" />
<rect x="802" y="335.742" width="112" height="46.516"  stroke="rgb(0,0,0)" stroke-width="1" stroke-linecap="round" fill="rgb(177,191,204)"/>
<text x="812" y="365.742" fill="rgb(0,0,0)" class="mindMapTitleFont">MockTest</text>
<ellipse cx="924" cy="358.742" rx="8" ry="8"  stroke="rgb(64,64,64)" stroke-width="1" stroke-linecap="round" fill="rgb(255,255,255)"/>
<line x1="921" y1="358.742" x2="927" y2="358.742"  stroke="rgb(64,64,64)" stroke-width="1" stroke-linecap="round"/>
<rect x="951" y="309.242" width="283" height="46.516"  fill="rgb(0,0,0)" fill-opacity="0.19" />
<rect x="946" y="304.242" width="283" height="46.516"  stroke="rgb(0,0,0)" stroke-width="1" stroke-linecap="round" fill="rgb(253,253,253)"/>
<text x="956" y="334.242" fill="rgb(0,0,0)" class="mindMapTitleFont">be-homework-testing-mock</text>
<rect x="951" y="372.242" width="122" height="46.516"  fill="rgb(0,0,0)" fill-opacity="0.19" />
<rect x="946" y="367.242" width="122" height="46.516"  stroke="rgb(0,0,0)" stroke-width="1" stroke-linecap="round" fill="rgb(253,253,253)"/>
<text x="956" y="397.242" fill="rgb(0,0,0)" class="mindMapTitleFont">2022.09.27</text>
<rect x="347" y="80.242" width="211" height="46.516"  fill="rgb(0,0,0)" fill-opacity="0.19" />
<rect x="342" y="75.242" width="211" height="46.516"  stroke="rgb(0,0,0)" stroke-width="1" stroke-linecap="round" fill="rgb(177,191,204)"/>
<text x="352" y="105.242" fill="rgb(0,0,0)" class="mindMapTitleFont">be-template-testing</text>
<rect x="343" y="159.242" width="215" height="46.516"  fill="rgb(0,0,0)" fill-opacity="0.19" />
<rect x="338" y="154.242" width="215" height="46.516"  stroke="rgb(0,0,0)" stroke-width="1" stroke-linecap="round" fill="rgb(177,191,204)"/>
<text x="348" y="184.242" fill="rgb(0,0,0)" class="mindMapTitleFont">be-reference-testing</text>
<rect x="25" y="238.242" width="533" height="46.516"  fill="rgb(0,0,0)" fill-opacity="0.19" />
<rect x="20" y="233.242" width="533" height="46.516"  stroke="rgb(0,0,0)" stroke-width="1" stroke-linecap="round" fill="rgb(177,191,204)"/>
<text x="30" y="263.242" fill="rgb(0,0,0)" class="mindMapTitleFont">오른쪽의 세가지 프로젝트는 왼쪽의 두 템플릿을 실습으로서 공유함</text>
<rect x="422" y="317.242" width="136" height="46.516"  fill="rgb(0,0,0)" fill-opacity="0.19" />
<rect x="417" y="312.242" width="136" height="46.516"  stroke="rgb(0,0,0)" stroke-width="1" stroke-linecap="round" fill="rgb(177,191,204)"/>
<text x="427" y="342.242" fill="rgb(0,0,0)" class="mindMapTitleFont">README.md</text>
</svg>